<svg xmlns="http://www.w3.org/2000/svg" viewBox="0 0 1275.43 1275.43"><defs><style>.cls-1{fill:#fbb03b;}</style></defs><title>Asset 1</title><g id="Layer_2" data-name="Layer 2"><g id="Layer_1-2" data-name="Layer 1"><path class="cls-1" d="M641.27,920.7H629.55v31.16H641q12.13,0,16.13-2.83t4-11.38Q661.16,920.7,641.27,920.7Z"/><polygon class="cls-1" points="424.95 939.85 442.03 939.85 433.22 926.33 424.95 939.85"/><path class="cls-1" d="M637.71,0C285.51,0,0,285.51,0,637.71s285.51,637.72,637.71,637.72,637.72-285.52,637.72-637.72S989.91,0,637.71,0ZM803.28,366.2l129.93,531H916.9L787,366.2Zm-32.62,0L900,897.17H883.71l-129.93-531Zm-33.19,0,129.37,531H850.53l-129.94-531Zm-33.19,0,129.37,531H817.34l-129.93-531Zm-33.18,0,129.37,531H784.16l-129.94-531Zm-192.93,0L558.6,693.41l52.87-216.94-27-110.27H639L769,897.17H714.41L639,588.54,585.6,805.48l22.5,91.69H591.79l-129.93-531Zm-32.63,0,129.37,531H558.6l-129.93-531Zm-33.18,0,129.93,531H525.42l-129.94-531Zm-33.19,0,129.93,531H492.23L362.3,366.2Zm-33.18,0,129.93,531H459l-129.93-531Zm-33.19,0,129.93,531H425.86l-129.37-531Zm-32.06,0,129.93,531H356.11l-129.93-531ZM377,961.73H331.18l10.9-10-11.72-20.93-10.77,21.77,9.36,9.14H283.18l10.15-9.14-18.07-30.76-13.27-10h46.8l-10.7,10,12,19,10.35-19-10.45-10h47.45l-11.32,8.29L358.3,939l10.42-18.89-9-8.29h37.89L382,923.48l-15.95,29.11ZM677.72,955q-11.41,6.74-29.63,6.73H588.2l17.17-11.55v-26.7l-16.23-11-16.24,11v38.25H548.7l-29.49-28.35v16.69l17.21,11.66H433.22l16.25-10.23-2.13-3.44H420.39l-2.09,3.44,14.13,10.23H388.71l13.79-11.66L421.77,921l-11-9.1h55.34L454.92,921l19.58,29.11,15.8,10.41,15.33-10.41V923.48l-17.18-11.62h41.73l29.15,26.93V923.48l-17.22-11.62h107.6q10.51,0,16.54,1.59A34.92,34.92,0,0,1,678,919.28q11.1,8.29,11.11,18.3Q689.14,948.29,677.72,955Zm107.49,6.73h-93.3l17.18-11.55V923.44l-17.18-11.58h91.93v21.55l-17.56-13.33h-33V931H751.4l12.89-5.85v22.51l-12.89-6.8H733.26v11h33l18.93-14.32Zm199.65-38.25v21.33q0,9.9-8.21,14.67t-25.22,4.77q-16.75,0-27.32-5.41t-10.56-14V923.48l-16.26-11L866.92,929.8l16.35,20.27,15.91,11.66H845.69l14.13-10.82-9.64-11.72-18.24,8.87v2l13,11.66H790.59l17.18-11.66V923.48l-17.18-11.62h53.76l-12.41,10.81v13.7l26.92-14.54-12-10H953.32l-15.6,11.62v19q0,6.15,4,8.92t12.72,2.77q9,0,13.11-2.79t4.1-8.9v-19L956,911.86h46Zm-41-118,22.5,91.69H950.08l-129.93-531h16.31L916.9,693.41,996.77,366.2h54.56Z"/></g></g></svg>