<svg xmlns="http://www.w3.org/2000/svg" viewBox="0 0 2037.5 391.91"><defs><style>.cls-1{font-size:200px;font-family:LatinWide, Wide Latin;}.cls-1,.cls-2{fill:#fbb03b;}</style></defs><title>Asset 2</title><g id="Layer_2" data-name="Layer 2"><g id="Layer_1-2" data-name="Layer 1"><text class="cls-1" transform="translate(409.29 254.64) scale(0.94 1)">ANDEKU</text><path class="cls-2" d="M196,0C87.73,0,0,87.73,0,196s87.73,196,196,196,196-87.73,196-196S304.18,0,196,0ZM103.88,278.25,60.52,101.05H78.73l43.36,177.2Zm23.28,0L84,101.05h5.45l43.36,177.2Zm11.07,0L94.87,101.05h5.63l43.37,177.2Zm11.08,0L106,101.05h5.63l43.36,177.2Zm11.07,0L117,101.05h5.63L166,278.25Zm11.08,0L128.1,101.05h5.63l43.17,177.2Zm52,0-25.16-103-17.83,72.4,7.51,30.6h-5.45l-43.36-177.2h5.45l26.84,109.2,17.64-72.4-9-36.8H198.3l43.36,177.2Zm23.27,0-43.36-177.2H209l43.18,177.2Zm11.08,0-43.36-177.2h5.63l43.17,177.2Zm11.07,0-43.36-177.2h5.63l43.18,177.2Zm11.08,0L236.6,101.05h5.63l43.17,177.2Zm11.07,0-43.36-177.2h5.44l43.37,177.2Zm16.52,0h-5.44l-43.36-177.2h5.44L291,210.25l26.66-109.2H335.9L300,247.65Z"/></g></g></svg>