<svg id="Layer_2" data-name="Layer 2" xmlns="http://www.w3.org/2000/svg" viewBox="0 0 2105.14 462.86"><defs><style>.cls-1{font-size:264.16px;font-family:LatinWide, Wide Latin;}.cls-1,.cls-2{fill:#fff;}</style></defs><title>Logo</title><text class="cls-1" transform="translate(441.68 297.89) scale(0.71 1)">ANDEKU</text><path class="cls-2" d="M228.35,21.35c-108.22,0-195.95,87.74-195.95,196s87.73,196,196,196,196-87.73,196-195.95S336.58,21.35,228.35,21.35ZM136.28,299.61,92.92,122.41h18.21l43.36,177.2Zm23.28,0-43.18-177.2h5.45l43.36,177.2Zm11.07,0-43.36-177.2h5.63l43.36,177.2Zm11.08,0-43.36-177.2H144l43.36,177.2Zm11.07,0-43.36-177.2h5.63l43.36,177.2Zm11.08,0L160.5,122.41h5.63l43.17,177.2Zm52,0-25.15-103L212.87,269l7.51,30.6h-5.45l-43.36-177.2H177l26.85,109.2,17.64-72.4-9-36.8H230.7l43.36,177.2Zm23.28,0-43.36-177.2h5.63l43.18,177.2Zm11.08,0-43.37-177.2h5.64l43.17,177.2Zm11.07,0-43.36-177.2h5.63l43.18,177.2Zm11.08,0L269,122.41h5.63l43.17,177.2Zm11.07,0-43.36-177.2h5.44l43.37,177.2Zm16.52,0h-5.44l-43.37-177.2h5.45l26.84,109.2,26.66-109.2H368.3L332.44,269Z"/></svg>