<svg xmlns="http://www.w3.org/2000/svg" viewBox="0 0 512.001 512.001"><circle cx="256.051" cy="255.941" r="245.972" fill="#2e9de3"/><path d="M356.036 398.423v3.445c0 55.222-44.766 99.988-99.988 99.988s-99.988-44.766-99.988-99.988V110.012c0-55.222 44.766-99.988 99.988-99.988s99.988 44.766 99.988 99.988v288.411z" fill="#4dbaf6"/><circle cx="256.051" cy="255.941" r="137.984" fill="#fea02c"/><circle cx="256.051" cy="255.941" r="99.988" fill="#fff"/><path d="M375.314 336.65l118.719 118.72c10.647 10.647 10.647 27.91 0 38.557-10.647 10.647-27.91 10.647-38.557 0l-118.718-118.72 38.556-38.557z" fill="#ff6e37"/><g fill="#fff"><path d="M336.762 375.2l38.553-38.553 35.577 35.577-38.553 38.553z"/><circle cx="290.067" cy="289.947" r="15.998"/><circle cx="222.025" cy="221.935" r="15.998"/></g><path d="M470.906 158.522l.109.244a10 10 0 0 0 13.214 5.037c5.039-2.258 7.294-8.173 5.036-13.212l-.109-.244c-2.258-5.039-8.172-7.294-13.213-5.037-5.039 2.256-7.294 8.173-5.037 13.212z"/><path d="M501.105 448.299l-39.71-39.71c.299-.312.584-.644.847-1.002 22.806-31.066 38.556-67.549 45.546-105.506 7.128-38.705 5.139-79.104-5.752-116.831-1.531-5.305-7.078-8.366-12.38-6.833-5.306 1.532-8.365 7.074-6.833 12.38 5.212 18.057 8.132 36.584 8.874 55.145h-88.074c-2.156-32.11-14.701-63.648-37.648-89.076.039-.357.061-.718.061-1.085v-17.37h7.492c26.233 0 51.447-7.284 73.444-21.095a232.622 232.622 0 0 1 7.839 11.491c2.97 4.654 9.15 6.024 13.807 3.054 4.655-2.97 6.023-9.151 3.055-13.807C438.895 66.661 388.54 28.61 329.885 10.91 270.661-6.963 206.967-2.743 150.541 22.791 88.265 50.972 40.692 101.719 16.582 165.683-7.527 229.647-5.283 299.17 22.898 361.446c28.182 62.277 78.929 109.851 142.892 133.96 29.366 11.069 59.901 16.582 90.372 16.582 35.899 0 71.707-7.655 105.392-22.897 16.123-7.296 31.481-16.242 45.65-26.589a10.007 10.007 0 0 0 1.43-1.276l39.772 39.772c7.265 7.264 16.807 10.896 26.349 10.896 9.543 0 19.085-3.632 26.35-10.896 14.528-14.531 14.528-38.17 0-52.699zm-53.971-53.97l-63.458-63.458c11.785-20.081 18.431-42.364 19.946-64.933h88.029c-2.036 45.708-17.262 90.671-44.517 128.391zm-188.423 97.486c-1.887.019-3.772.014-5.655-.013-48.24-1.584-86.999-41.315-86.999-89.934v-28.445c26.443 20.285 58.216 30.432 89.992 30.432 25.944 0 51.888-6.765 74.929-20.287l15.058 15.058v3.242c.001 48.729-38.932 88.532-87.325 89.947zm89.054-119.742a149.02 149.02 0 0 0 12.924-11.492c4.13-4.13 7.953-8.45 11.492-12.923l24.489 24.489-24.415 24.416-24.49-24.49zm-1.217-25.633c-49.9 49.902-131.098 49.902-180.999 0-24.174-24.173-37.487-56.313-37.487-90.499s13.312-66.325 37.487-90.499c24.95-24.951 57.724-37.427 90.5-37.427 32.775 0 65.549 12.476 90.5 37.427 49.902 49.902 49.902 131.098-.001 180.998zM108.405 245.941H20.383c2.041-46.307 17.719-91.143 44.813-128.586 21.981 13.786 47.174 21.057 73.384 21.057h7.48v16.949c0 .493.048.973.116 1.447-22.398 24.765-35.566 55.883-37.771 89.133zM248.534 20.339a236.565 236.565 0 0 1 15.917.079c45.695 4.252 81.587 42.807 81.587 89.594v28.446c-52.886-40.565-127.095-40.564-179.979.003v-28.449c-.001-47.09 36.357-85.842 82.475-89.673zm185.934 81.22c-18.36 11.054-39.245 16.855-60.941 16.855h-7.492v-8.401c0-29.36-11.564-56.07-30.376-75.814 37.586 13.432 71.871 36.284 98.809 67.36zM158.786 41.011a233.54 233.54 0 0 1 18.11-7.285c-19.081 19.791-30.836 46.691-30.836 76.287v8.401h-7.48c-21.68 0-42.55-5.794-60.9-16.831 21.662-25.111 48.96-46.026 81.106-60.572zM20.357 265.939h88.048c2.2 33.193 15.327 64.261 37.656 89.007v18.524h-7.486c-26.234 0-51.449 7.284-73.445 21.095a236.13 236.13 0 0 1-24.011-41.362c-12.83-28.35-19.554-57.929-20.762-87.264zm57.29 144.374c18.355-11.048 39.235-16.847 60.926-16.847h7.486v8.401c0 29.513 11.687 56.345 30.671 76.119-37.793-13.506-72.135-36.562-99.083-67.673zm275.662 60.557a237.595 237.595 0 0 1-18.137 7.312c15.673-16.244 26.401-37.284 29.747-60.675l29.528 29.529a237.725 237.725 0 0 1-41.138 23.834zm133.654 15.986c-6.73 6.731-17.684 6.733-24.416 0l-76.151-76.152 24.415-24.416 76.152 76.151c6.731 6.732 6.731 17.685 0 24.417z"/><path d="M192.27 319.428c-3.938-3.869-10.258-3.804-14.126.131-3.857 3.923-3.812 10.229.083 14.104a9.968 9.968 0 0 0 7.119 2.978 9.965 9.965 0 0 0 6.939-2.802c3.976-3.833 4.091-10.163.257-14.138-.089-.092-.18-.183-.272-.273zM192.415 192.308c16.997-16.997 39.595-26.358 63.633-26.358 5.521 0 9.999-4.476 9.999-9.999 0-5.522-4.477-9.999-9.999-9.999-29.379 0-56.999 11.441-77.773 32.214-15.893 15.894-26.415 35.943-30.428 57.98-3.918 21.518-1.418 43.464 7.229 63.469a9.999 9.999 0 1 0 18.356-7.934c-14.739-34.095-7.287-73.102 18.983-99.373zM319.763 192.392a9.947 9.947 0 0 0 7.056 2.922c2.56 0 5.119-.979 7.073-2.933 3.905-3.905 3.897-10.244-.008-14.148-3.869-3.94-10.199-4-14.14-.13-3.941 3.869-3.999 10.2-.13 14.14l.149.149zM339.978 223.409c12.857 33.229 4.889 70.975-20.299 96.163-16.963 16.963-39.516 26.324-63.506 26.357-5.522.008-9.993 4.49-9.985 10.013.008 5.517 4.482 9.985 9.999 9.985h.014c29.321-.041 56.886-11.482 77.619-32.214 30.781-30.782 40.519-76.911 24.808-117.519-1.993-5.15-7.782-7.708-12.934-5.717-5.149 1.992-7.709 7.782-5.716 12.932zM282.386 209.284c-4.806-2.714-10.908-1.018-13.622 3.792l-42.847 75.898c-2.715 4.809-1.018 10.908 3.792 13.622a9.997 9.997 0 0 0 13.622-3.791l42.847-75.898c2.714-4.81 1.017-10.909-3.792-13.623z"/><path d="M264.071 289.943c0 14.334 11.662 25.997 25.997 25.997s25.997-11.663 25.997-25.997-11.662-25.997-25.997-25.997-25.997 11.661-25.997 25.997zm25.997-5.999a6.005 6.005 0 0 1 5.999 5.999 6.005 6.005 0 0 1-5.999 5.999 6.005 6.005 0 0 1-5.999-5.999 6.004 6.004 0 0 1 5.999-5.999zM248.024 221.938c0-14.334-11.662-25.997-25.997-25.997s-25.997 11.663-25.997 25.997 11.662 25.997 25.997 25.997 25.997-11.663 25.997-25.997zm-25.997 5.999c-3.309 0-5.999-2.691-5.999-5.999s2.691-5.999 5.999-5.999 5.999 2.691 5.999 5.999-2.691 5.999-5.999 5.999z"/></svg>